# xmcd CD database file
#
# Track frame offsets:
#	150
#	25264
#	40610
#	73559
#	90927
#	116239
#	132775
#	148814
#	165910
#	197149
#	209352
#	236697
#	249078
#	267053
#	285959
#	301469
#	318548
#
# Disc length: 4435 seconds
#
# Revision: 0
# Processed by: cddbd v1.5.1PL0 Copyright (c) Steve Scherf et al.
# Submitted via: CDex 1.51
#
DISCID=e5115111
DTITLE=浜村淳 - 甦る心の名画座(Disc2 ヨーロッパ映画編）
DYEAR=2004
DGENRE=Trailer
TTITLE0=「男と女」解説
TTITLE1=男と女
TTITLE2=「アラビアのロレンス」開設
TTITLE3=アラビアのロレンス
TTITLE4=「禁じられた遊び」解説
TTITLE5=愛のロマンス
TTITLE6=「太陽がいっぱい」解説
TTITLE7=太陽がいっぱい
TTITLE8=「第三の男」解説
TTITLE9=第三の男
TTITLE10=「鉄道員」解説
TTITLE11=鉄道員
TTITLE12=「白い恋人たち」解説
TTITLE13=白い恋人たち
TTITLE14=「小さな恋のメロディ」解説
TTITLE15=メロディ・フェア
TTITLE16=「映画よ、ありがとう」〜浜村淳
EXTD=YEAR: 2004
EXTT0=
EXTT1=
EXTT2=
EXTT3=
EXTT4=
EXTT5=
EXTT6=
EXTT7=
EXTT8=
EXTT9=
EXTT10=
EXTT11=
EXTT12=
EXTT13=
EXTT14=
EXTT15=
EXTT16=
PLAYORDER=
